<svg xmlns="http://www.w3.org/2000/svg" viewBox="0 0 20 20"><defs><style>.cls-1{fill-rule:evenodd;}</style></defs><g id="Camada_2" data-name="Camada 2"><g id="Camada_1-2" data-name="Camada 1"><path class="cls-1" d="M0,1A1,1,0,0,1,1,0H8A1,1,0,0,1,9,1V8A1,1,0,0,1,8,9H1A1,1,0,0,1,0,8ZM3,4A1,1,0,0,1,4,3H5A1,1,0,0,1,6,4V5A1,1,0,0,1,5,6H4A1,1,0,0,1,3,5ZM0,12a1,1,0,0,1,1-1H8a1,1,0,0,1,1,1v7a1,1,0,0,1-1,1H1a1,1,0,0,1-1-1Zm4,2a1,1,0,0,0-1,1v1a1,1,0,0,0,1,1H5a1,1,0,0,0,1-1V15a1,1,0,0,0-1-1ZM12,0a1,1,0,0,0-1,1V8a1,1,0,0,0,1,1h7a1,1,0,0,0,1-1V1a1,1,0,0,0-1-1Zm2,4a1,1,0,0,1,1-1h1a1,1,0,0,1,1,1V5a1,1,0,0,1-1,1H15a1,1,0,0,1-1-1Z"/><path d="M12,11a1,1,0,0,0-1,1v1a1,1,0,0,0,1,1h1v2a1,1,0,0,0,1,1h1a1,1,0,0,0,1-1V14a1,1,0,0,0-1-1H14V12a1,1,0,0,0-1-1Zm0,6a1,1,0,0,0-1,1v1a1,1,0,0,0,1,1h1a1,1,0,0,0,1-1V18a1,1,0,0,0-1-1Zm4-5a1,1,0,0,1,1-1h1a1,1,0,0,1,1,1v1a1,1,0,0,1-1,1H17a1,1,0,0,1-1-1Zm1,5a1,1,0,0,0-1,1v1a1,1,0,0,0,1,1h1a1,1,0,0,0,1-1V18a1,1,0,0,0-1-1Z"/></g></g></svg>